/* XPM */
static char *_518464864524fe9e032bd3b02ac5b7cXacc48M2WcSaycOa[] = {
/* columns rows colors chars-per-pixel */
"32 32 6 1 ",
"  c None",
". c #61567D",
"X c #8C76BE",
"o c #EA92AB",
"O c #F4C4D4",
"+ c white",
/* pixels */
"              oooo    OOOO      ",
"              oooo    OOOO      ",
"            oo....ooOO....OO    ",
"            oo....ooOO....OO    ",
"              oo..oo  OO..OO    ",
"              oo..oo  OO..OO    ",
"            ..oooo....OOOOOO..  ",
"            ..oooo....OOOOOO..  ",
"            ..ooooooOOOOOOOO..  ",
"            ..ooooooOOOOOOOO..  ",
"            ..oooo..OOOO..OO..  ",
"            ..oooo..OOOO..OO..  ",
"            ..oooo..ooOO..OO..  ",
"            ..oooo..ooOO..OO..  ",
"            ..ooooooooooOOOO..  ",
"            ..ooooooooooOOOO..  ",
"              ..............    ",
"              ..............    ",
"      OO                        ",
"      OO                        ",
"    OO++OO        ....          ",
"    OO++OO        ....          ",
"  ooooOO..    ....OOOO..        ",
"  ooooOO..    ....OOOO..        ",
"    ....    ..OOOOOOOO..        ",
"    ....    ..OOOOOOOO..        ",
"            ..OOOO....XX        ",
"            ..OOOO....XX        ",
"          ..OOOO..XXooooXX      ",
"          ..OOOO..XXooooXX      ",
"          ..oo..    XXooXX      ",
"          ..oo..    XXooXX      "
};
