/* XPM */
static char *_99f34851c9e4f1abdeb14bbc8d418b65pnvyfrkRmFrqs14[] = {
/* columns rows colors chars-per-pixel */
"32 32 5 1 ",
"  c None",
". c #61567D",
"X c #8C76BE",
"o c #EA92AB",
"O c #F4C4D4",
/* pixels */
"              oooo    OOOO      ",
"              oooo    OOOO      ",
"            oo....ooOO....OO    ",
"            oo....ooOO....OO    ",
"              oo..oo  OO..OO    ",
"              oo..oo  OO..OO    ",
"            ..oooo....OOOOOO..  ",
"            ..oooo....OOOOOO..  ",
"            ..ooooooOOOOOOOO..  ",
"            ..ooooooOOOOOOOO..  ",
"            ..oooo..OOOO..OO..  ",
"            ..oooo..OOOO..OO..  ",
"            ..oooo..ooOO..OO..  ",
"            ..oooo..ooOO..OO..  ",
"            ..ooooooooooOOOO..  ",
"            ..ooooooooooOOOO..  ",
"              ..............    ",
"              ..............    ",
"  ooOOOO                        ",
"  ooOOOO                        ",
"  ..ooOOOO                      ",
"  ..ooOOOO                      ",
"    ..oo      XX  ....          ",
"    ..oo      XX  ....          ",
"            XXoo..OOOO..        ",
"            XXoo..OOOO..        ",
"        XXXXoooo..OOOO..        ",
"        XXXXoooo..OOOO..        ",
"          ooooXX..OOOO..        ",
"          ooooXX..OOOO..        ",
"                  ..oo..        ",
"                  ..oo..        "
};
