/* XPM */
static char *b78939a2d4ad4769e53f02f6da5754dfRYj3La9tMhDB5Y8G[] = {
/* columns rows colors chars-per-pixel */
"32 32 5 1 ",
"  c None",
". c #61567D",
"X c #AF7FC2",
"o c #EA92AB",
"O c #F4C4D4",
/* pixels */
"                ..      ..      ",
"                ..      ..      ",
"              ..OO..  ..XX..    ",
"              ..OO..  ..XX..    ",
"            ..OOOO....XXoo..    ",
"            ..OOOO....XXoo..    ",
"            ..OOoooo....oo..    ",
"            ..OOoooo....oo..    ",
"            ..ooOOOOooOOOOoo..  ",
"            ..ooOOOOooOOOOoo..  ",
"            ..ooOO..ooOO..oo..  ",
"            ..ooOO..ooOO..oo..  ",
"            ..OOoo..oooo..oooo..",
"            ..OOoo..oooo..oooo..",
"  ....      ..ooooXXooooXXooXX..",
"  ....      ..ooooXXooooXXooXX..",
"..OOOO..      ................  ",
"..OOOO..      ................  ",
"..oo..                          ",
"..oo..                          ",
"..OOoo....  ..............      ",
"..OOoo....  ..............      ",
"  ..oooooo..OOOOooooOOoooo..    ",
"  ..oooooo..OOOOooooOOoooo..    ",
"    ....OOooOOoooooooooooo..    ",
"    ....OOooOOoooooooooooo..    ",
"        ..oooooo......oooooo..  ",
"        ..oooooo......oooooo..  ",
"        ..XXXX..      ..XXXX..  ",
"        ..XXXX..      ..XXXX..  ",
"                                ",
"                                "
};
