/* XPM */
static char *b5eaf9647be54dcfa9f715cc2af47872XZnmluX5n9vgzfI8[] = {
/* columns rows colors chars-per-pixel */
"32 32 5 1 ",
"  c None",
". c #61567D",
"X c #AF7FC2",
"o c #EA92AB",
"O c #F4C4D4",
/* pixels */
"                                ",
"                                ",
"              ..      ..        ",
"              ..      ..        ",
"            ..OO..  ..XX..      ",
"            ..OO..  ..XX..      ",
"          ..OOOO....XXoo..      ",
"          ..OOOO....XXoo..      ",
"          ..OOoooo....oo..      ",
"          ..OOoooo....oo..      ",
"          ..ooOOOOooOOOOoo..    ",
"          ..ooOOOOooOOOOoo..    ",
"          ..ooOO..ooOO..oo..    ",
"          ..ooOO..ooOO..oo..    ",
"          ..OOoo..oooo..oooo..  ",
"          ..OOoo..oooo..oooo..  ",
"          ..ooooXXooooXXooXX..  ",
"          ..ooooXXooooXXooXX..  ",
"    ....    ................    ",
"    ....    ................    ",
"  ..OOOO..                      ",
"  ..OOOO..                      ",
"  ..OOoo..  ..............      ",
"  ..OOoo..  ..............      ",
"    ..oooo..ooOOOOOOooOOoo..    ",
"    ..oooo..ooOOOOOOooOOoo..    ",
"      ..ooooOOoooooooooooo..    ",
"      ..ooooOOoooooooooooo..    ",
"        ....oooooo..oooooo..    ",
"        ....oooooo..oooooo..    ",
"          ..XXXX..  ..XXXX..    ",
"          ..XXXX..  ..XXXX..    "
};
