/* XPM */
static char *f2e2e6da28a54e5a82d055304430ae99pIDjB9lK5b6460SF[] = {
/* columns rows colors chars-per-pixel */
"32 32 5 1 ",
"  c None",
". c #61567D",
"X c #AF7FC2",
"o c #EA92AB",
"O c #F4C4D4",
/* pixels */
"              ..      ..        ",
"              ..      ..        ",
"            ..OO..  ..XX..      ",
"            ..OO..  ..XX..      ",
"          ..OOoo....XXoo..      ",
"          ..OOoo....XXoo..      ",
"          ..OOoooo....oo..      ",
"          ..OOoooo....oo..      ",
"          ..oooooooooooooo..    ",
"          ..oooooooooooooo..    ",
"          ..ooOO..ooOO..oo..    ",
"          ..ooOO..ooOO..oo..    ",
"          ..ooOO..oooo..oooo..  ",
"          ..ooOO..oooo..oooo..  ",
"          ..XXooooooXXoooooo..  ",
"          ..XXooooooXXoooooo..  ",
"    ....    ................    ",
"    ....    ................    ",
"  ..OOoo..                      ",
"  ..OOoo..                      ",
"..OOoooo..          ......      ",
"..OOoooo..          ......      ",
"..OOoo..        ....OOoooo..    ",
"..OOoo..        ....OOoooo..    ",
"  ..oo....  ....OOOOoooooo..    ",
"  ..oo....  ....OOOOoooooo..    ",
"    ..oooo..OOoooooooooooooo..  ",
"    ..oooo..OOoooooooooooooo..  ",
"      ....oooooooooo....XXXX..  ",
"      ....oooooooooo....XXXX..  ",
"          ..XXXXOO..            ",
"          ..XXXXOO..            "
};
