/* XPM */
static char *_b16889a604e450ba91926ca88d189belTkxmmGeyeUVJ4lV[] = {
/* columns rows colors chars-per-pixel */
"32 32 5 1 ",
"  c None",
". c #61567D",
"X c #AF7FC2",
"o c #EA92AB",
"O c #F4C4D4",
/* pixels */
"                                ",
"                                ",
"              ..      ..        ",
"              ..      ..        ",
"            ..OO..  ..XX..      ",
"            ..OO..  ..XX..      ",
"          ..OOoo....XXXX..      ",
"          ..OOoo....XXXX..      ",
"          ..OOoooo....XX..      ",
"          ..OOoooo....XX..      ",
"          ..ooooOOooOOOOoo..    ",
"          ..ooooOOooOOOOoo..    ",
"          ..OOoo..ooOO..oo..    ",
"          ..OOoo..ooOO..oo..    ",
"  ....    ..ooOO..oooo..oooo..  ",
"  ....    ..ooOO..oooo..oooo..  ",
"..OOOO..  ..oooooooooooooooo..  ",
"..OOOO..  ..oooooooooooooooo..  ",
"..OOoo..    ................    ",
"..OOoo..    ................    ",
"  ..oooo....  ......            ",
"  ..oooo....  ......            ",
"    ..ooooOO..OOoooo......      ",
"    ..ooooOO..OOoooo......      ",
"      ..ooooooooooooOOoooo..    ",
"      ..ooooooooooooOOoooo..    ",
"        ..oooooooooooooooo..    ",
"        ..oooooooooooooooo..    ",
"        ..XXXX........oooooo..  ",
"        ..XXXX........oooooo..  ",
"                      ..XXXX..  ",
"                      ..XXXX..  "
};
