/* XPM */
static char *ecd992ec14244331b56605b95d5b73726Vpd5PtFiW3neTDf[] = {
/* columns rows colors chars-per-pixel */
"32 32 6 1 ",
"  c None",
". c #61567D",
"X c #8C76BE",
"o c #EA92AB",
"O c #F4C4D4",
"+ c white",
/* pixels */
"              oooo    OOOO      ",
"              oooo    OOOO      ",
"            oo....ooOO....OO    ",
"            oo....ooOO....OO    ",
"              oo..oo  OO..OO    ",
"              oo..oo  OO..OO    ",
"            ..oooo....OOOOOO..  ",
"            ..oooo....OOOOOO..  ",
"            ..ooooooOOOOOOOO..  ",
"            ..ooooooOOOOOOOO..  ",
"            ..oooo..OOOO..OO..  ",
"            ..oooo..OOOO..OO..  ",
"            ..oooo..ooOO..OO..  ",
"            ..oooo..ooOO..OO..  ",
"            ..ooooooooooOOOO..  ",
"            ..ooooooooooOOOO..  ",
"              ..............    ",
"              ..............    ",
"      oo                        ",
"      oo                        ",
"    oo++OO        ....          ",
"    oo++OO        ....          ",
"  ooOOOO..    XX..OOOO..        ",
"  ooOOOO..    XX..OOOO..        ",
"    ....    XXoo..OOOO..        ",
"    ....    XXoo..OOOO..        ",
"            XXoooo..OO..        ",
"            XXoooo..OO..        ",
"          XXoooooo..OOOO..      ",
"          XXoooooo..OOOO..      ",
"          XXooooXX  ..oo..      ",
"          XXooooXX  ..oo..      "
};
