/* XPM */
static char *a9c59476a48646149e0c5fc73dbb0c44ejMj5EOangUiNmwo[] = {
/* columns rows colors chars-per-pixel */
"32 32 5 1 ",
"  c None",
". c #61567D",
"X c #8C76BE",
"o c #EA92AB",
"O c #F4C4D4",
/* pixels */
"              oooo    OOOO      ",
"              oooo    OOOO      ",
"            oo....ooOO....OO    ",
"            oo....ooOO....OO    ",
"              oo..oo  OO..OO    ",
"              oo..oo  OO..OO    ",
"            ..oooo....OOOOOO..  ",
"            ..oooo....OOOOOO..  ",
"            ..ooooooOOOOOOOO..  ",
"            ..ooooooOOOOOOOO..  ",
"            ..oooo..OOOO..OO..  ",
"            ..oooo..OOOO..OO..  ",
"            ..oooo..ooOO..OO..  ",
"            ..oooo..ooOO..OO..  ",
"            ..ooooooooooOOOO..  ",
"            ..ooooooooooOOOO..  ",
"              ..............    ",
"              ..............    ",
"      OO                        ",
"      OO                        ",
"    OOoo                        ",
"    OOoo                        ",
"    ooOOoooo    ........        ",
"    ooOOoooo    ........        ",
"      ....    ..OOOOOOOO..      ",
"      ....    ..OOOOOOOO..      ",
"            ..OOOOOO....XX      ",
"            ..OOOOOO....XX      ",
"            oooo....XXooXX      ",
"            oooo....XXooXX      ",
"                    XXooXX      ",
"                    XXooXX      "
};
