/* XPM */
static char *_f0a20028aff4cd0b97e33e8dc61d4ceSwDIiUZNcKLBBoiP[] = {
/* columns rows colors chars-per-pixel */
"32 32 5 1 ",
"  c None",
". c #61567D",
"X c #AF7FC2",
"o c #EA92AB",
"O c #F4C4D4",
/* pixels */
"                ..      ..      ",
"                ..      ..      ",
"              ..OO..  ..XX..    ",
"              ..OO..  ..XX..    ",
"            ..OOoo....XXoo..    ",
"            ..OOoo....XXoo..    ",
"            ..OOoooo....oo..    ",
"            ..OOoooo....oo..    ",
"            ..oooooooooooooo..  ",
"            ..oooooooooooooo..  ",
"            ..ooOO..ooOO..oo..  ",
"            ..ooOO..ooOO..oo..  ",
"            ..ooOO..oooo..oooo..",
"            ..ooOO..oooo..oooo..",
"            ..XXooooooXXoooooo..",
"            ..XXooooooXXoooooo..",
"              ................  ",
"              ................  ",
"  ....                          ",
"  ....                          ",
"..OOOO..            ......      ",
"..OOOO..            ......      ",
"..OOoo..        ....OOoooo..    ",
"..OOoo..        ....OOoooo..    ",
"..oo..      ....OOOOoooooo..    ",
"..oo..      ....OOOOoooooo..    ",
"..oooo......OOoooooooooooooo..  ",
"..oooo......OOoooooooooooooo..  ",
"  ....ooXXXXoooooooo..oooooo..  ",
"  ....ooXXXXoooooooo..oooooo..  ",
"      ......XXXXOO..  ..XXXX..  ",
"      ......XXXXOO..  ..XXXX..  "
};
