/* XPM */
static char *_b6c8c8e73b34fe2f8ca3882c90d67dbt1WPmHg5dPIiU6s5[] = {
/* columns rows colors chars-per-pixel */
"32 32 5 1 ",
"  c None",
". c #61567D",
"X c #AF7FC2",
"o c #EA92AB",
"O c #F4C4D4",
/* pixels */
"                ..      ..      ",
"                ..      ..      ",
"              ..OO..  ..XX..    ",
"              ..OO..  ..XX..    ",
"            ..OOoo....XXoo..    ",
"            ..OOoo....XXoo..    ",
"            ..OOoooo....oo..    ",
"            ..OOoooo....oo..    ",
"            ..oooooooooooooo..  ",
"            ..oooooooooooooo..  ",
"            ..ooOO..ooOO..oo..  ",
"            ..ooOO..ooOO..oo..  ",
"            ..ooOO..oooo..oooo..",
"            ..ooOO..oooo..oooo..",
"            ..XXooooooXXoooooo..",
"            ..XXooooooXXoooooo..",
"    ....      ................  ",
"    ....      ................  ",
"  ..OOoo..                      ",
"  ..OOoo..                      ",
"  ..oooo..          ......      ",
"  ..oooo..          ......      ",
"  ..oo..        ....OOoooo..    ",
"  ..oo..        ....OOoooo..    ",
"  ..oo....  ....OOOOoooooo..    ",
"  ..oo....  ....OOOOoooooo..    ",
"    ..oooo..OOoooooooooooooo..  ",
"    ..oooo..OOoooooooooooooo..  ",
"      ....oooooooooo..oooooo..  ",
"      ....oooooooooo..oooooo..  ",
"          ..XXXXOO..  ..XXXX..  ",
"          ..XXXXOO..  ..XXXX..  "
};
