/* XPM */
static char *_c871546e52f43a0d496dfa167821a4aEsgMyauRrKbMlRd9[] = {
/* columns rows colors chars-per-pixel */
"32 32 5 1 ",
"  c None",
". c #61567D",
"X c #AF7FC2",
"o c #EA92AB",
"O c #F4C4D4",
/* pixels */
"                ..      ..      ",
"                ..      ..      ",
"              ..OO..  ..XX..    ",
"              ..OO..  ..XX..    ",
"            ..OOoo....XXoo..    ",
"            ..OOoo....XXoo..    ",
"            ..OOoooo....oo..    ",
"            ..OOoooo....oo..    ",
"            ..oooooooooooooo..  ",
"            ..oooooooooooooo..  ",
"            ..ooOO..ooOO..oo..  ",
"            ..ooOO..ooOO..oo..  ",
"            ..ooOO..oooo..oooo..",
"            ..ooOO..oooo..oooo..",
"            ..XXooooooXXoooooo..",
"            ..XXooooooXXoooooo..",
"      ....    ................  ",
"      ....    ................  ",
"    ..OOoo..                    ",
"    ..OOoo..                    ",
"    ..oooo..        ......      ",
"    ..oooo..        ......      ",
"  ..OOoo..      ....OOoooo..    ",
"  ..OOoo..      ....OOoooo..    ",
"  ..oooo..  ....OOOOoooooo..    ",
"  ..oooo..  ....OOOOoooooo..    ",
"    ..ooXX..OOoooooooooooooo..  ",
"    ..ooXX..OOoooooooooooooo..  ",
"      ....oooooooooo..oooooo..  ",
"      ....oooooooooo..oooooo..  ",
"          ..XXXXOO..  ..XXXX..  ",
"          ..XXXXOO..  ..XXXX..  "
};
