/* XPM */
static char *_e311eab0b1a46f4df16bdcd0529dab10jAXLHWnoQxW53QG[] = {
/* columns rows colors chars-per-pixel */
"32 32 6 1 ",
"  c None",
". c #61567D",
"X c #AF7FC2",
"o c #EA92AB",
"O c #F4C4D4",
"+ c white",
/* pixels */
"                                ",
"                                ",
"                                ",
"                                ",
"                  ......        ",
"                  ......        ",
"                ..OOOOOO..      ",
"                ..OOOOOO..      ",
"              ..OO..OOOOoo..    ",
"              ..OO..OOOOoo..    ",
"            ..OO..oooo....      ",
"            ..OO..oooo....      ",
"            ..OO......          ",
"            ..OO......          ",
"            ..OO..              ",
"            ..OO..              ",
"          ..ooOOoo..            ",
"          ..ooOOoo..            ",
"        ..oo++oooooo..          ",
"        ..oo++oooooo..          ",
"        ..oooo++oooo..          ",
"        ..oooo++oooo..          ",
"        ..XXooooooXX..          ",
"        ..XXooooooXX..          ",
"          ..XXXXXX..            ",
"          ..XXXXXX..            ",
"            ......              ",
"            ......              ",
"                                ",
"                                ",
"                                ",
"                                "
};
