/* XPM */
static char *result[] = {
/* columns rows colors chars-per-pixel */
"32 32 9 1 ",
"  c #0D2B45",
". c #203C56",
"X c #544E68",
"o c #8D697A",
"O c #D08159",
"+ c #FFAA5E",
"@ c #FFD4A3",
"# c #FFECD6",
"$ c white",
/* pixels */
"................................",
"................................",
"..oo.......oo....oo.....oo......",
"...oo.......ooXX$$$$....XXX.....",
"....o......XXXO$++++$..XO+X.....",
"...........XOO$$++++$$XO+@X.....",
"............X$++@@++++$+@X......",
".........oo..$++@@++++$@X..XXX..",
"..........oo.$@@++++$$...XXOOOX.",
"...........o.$@@++++$X..XXO++OX.",
"...oo........$@@$$$$OX.XXO+@@X..",
"....oo.......$@@$..XOX.XO+@@X...",
".....o.......$@@$X..XXXO+@@X....",
"............$$@@$$X.XXXO@@X.....",
"...........$  @@  $..XXXXX......",
".........o$$  @@  $$......oo....",
".........$  ++@@##  $......oo...",
".oo.....$$  ++@@##  $$......o...",
"..oo...$  ++++##++++  $.........",
"...o...$  ++++##++++  $o........",
".....XX$  OO++++++OO  $oo.......",
"...XXOO$  OO++++++OO  $.o.......",
"...XOO+$  OOOOOOOOOO  $.........",
"....XXO$  OOOOOOOOOO  $.........",
"......XX$$  OOOOOO  $$..........",
"........X$  OOOOOO  $...........",
".oo..XX.XO$$      $$......oo....",
"..ooXO@X.XO$      $........oo...",
"...o.XOX.XOX$$$$$$..........o...",
"..............o.....oo..........",
".....................oo.........",
"......................o........."
};
