/* XPM */
static char *_3e0e322678d49a79711dbb7c262ad19t1grlQJR4jrJuUDU[] = {
/* columns rows colors chars-per-pixel */
"32 32 5 1 ",
"  c None",
". c #61567D",
"X c #8C76BE",
"o c #EA92AB",
"O c #F4C4D4",
/* pixels */
"              oooo    OOOO      ",
"              oooo    OOOO      ",
"            oo....ooOO....OO    ",
"            oo....ooOO....OO    ",
"              oo..oo  OO..OO    ",
"              oo..oo  OO..OO    ",
"            ..oooo....OOOOOO..  ",
"            ..oooo....OOOOOO..  ",
"            ..ooooooOOOOOOOO..  ",
"            ..ooooooOOOOOOOO..  ",
"            ..oooo..OOOO..OO..  ",
"            ..oooo..OOOO..OO..  ",
"            ..oooo..ooOO..OO..  ",
"            ..oooo..ooOO..OO..  ",
"            ..ooooooooooOOOO..  ",
"            ..ooooooooooOOOO..  ",
"              ..............    ",
"              ..............    ",
"      OO                        ",
"      OO                        ",
"    OOoo        ....            ",
"    OOoo        ....            ",
"    ooOOoooo  ..OOOO..XX        ",
"    ooOOoooo  ..OOOO..XX        ",
"      ....    ..OOOO..ooXX      ",
"      ....    ..OOOO..ooXX      ",
"              ..OOOO..ooXX      ",
"              ..OOOO..ooXX      ",
"              ..OOOO..ooXX      ",
"              ..OOOO..ooXX      ",
"              ..oooo..ooXX      ",
"              ..oooo..ooXX      "
};
