/* XPM */
static char *result[] = {
/* columns rows colors chars-per-pixel */
"32 32 12 1 ",
"  c #61557E",
". c #8C76BE",
"X c #8D77BF",
"o c #8265C4",
"O c #D4939B",
"+ c #FB8A98",
"@ c #FB9FAA",
"# c #FFC2AD",
"$ c #9085D0",
"% c #9186D1",
"& c #F4C5D5",
"* c #61557E",
/* pixels */
"$$$$$$$$$$$$$$$$$$$$$$$$$$$$$$$$",
"$$$$$$$$$$$$$$$$$$$$$$$$$$$$$$$$",
"$$..$$**$$$oo$$$$..$$$$$**$$$$$$",
"$$$..$**$$$$oo@@@@..$$$$**@$$$$$",
"$$$$**%%&&$@@@O###@.$$**%%&&$$$$",
"$$$$**%%&&$@OO++###@$$**%%&&$$$$",
"$$$$**%%&&$$@@OO++#@$$**%%&&$$$$",
"$$$$**%%&&.$$$@@OO+#@$**%%&&@@$$",
"$$$$**%%&&********&&&&**%%&&OO@$",
"$$$$**%%&&********&&&&**%%&&+O@$",
"$$$o**%%&&%%%%%%%%%%&&**%%&&#@$$",
"$$$$**%%&&%%%%%%%%%%&&**%%&&@$$$",
"$$  **%%&&XXXXXXXXXXXX**%%&&  $$",
"$$  **%%&&XXXXXXXXXXXX**%%&&  $$",
"    **%%&&********&&&&**%%&&    ",
"    **%%&&********&&&&**%%&&    ",
"  XX**%%&&%%%%%%%%%%&&**%%&&XX  ",
"  XX**%%&&%%%%%%%%%%&&**%%&&XX  ",
"  XXXX%%XXXXXXXXXXXXXXXX%%XXXX  ",
"  XXXX%%XXXXXXXXXXXXXXXX%%XXXX  ",
"    XXXXXXXXXXXXXXXXXXXXXXXX    ",
"    XXXXXXXXXXXXXXXXXXXXXXXX    ",
"$$    XXXXXXXXXXXXXXXXXXXX    $$",
"$$    XXXXXXXXXXXXXXXXXXXX    $$",
"$$$$      XXXXXXXXXXXX      $$$$",
"$$$$      XXXXXXXXXXXX      $$$$",
"$..$$@@$                $$oo$$$$",
"$$..@O#@                $$$oo$$$",
"$$$.$@O@$@O@@O@$$$$$$$$$$$$$o$$$",
"$$$$$$$$$$$$$$.$$$$$..$$$$$$$$$$",
"$$$$$$$$$$$$$$$$$$$$$..$$$$$$$$$",
"$$$$$$$$$$$$$$$$$$$$$$.$$$$$$$$$"
};
