/* XPM */
static char *a8d9beb881a14599be19e1c10f08edf7Ai1ap1WY2oZXLYRC[] = {
/* columns rows colors chars-per-pixel */
"32 32 6 1 ",
"  c None",
". c #61567D",
"X c #AF7FC2",
"o c #9BADB7",
"O c #9085D0",
"+ c #F4C4D4",
/* pixels */
"                                ",
"                                ",
"                                ",
"       ++             ++        ",
"      +OOX           +OOX       ",
"      +OOX           +OOX       ",
"      +OOX           +OOX       ",
"      +OOX+++++++++XX+OOX       ",
"      +OOXOOOOOOOOOOX+OOX       ",
"      +OOXXXXXXXXXXXX+OOX       ",
"      +OOXooooooooooo+OOX.      ",
"     .+OOXooooooooooo+OOX..     ",
"   ...+OOXooooooooooo+OOX....   ",
"  ....+OOX+++++++++XX+OOXo....  ",
"  ..oo+OOXOOOOOOOOOOX+OOXooo..  ",
" ...oo+OOXXXXXXXXXXXX+OOXooo... ",
" ..ooo+OOXooooooooooo+OOXoooo.. ",
"...ooo+OOXooooooooooo+OOXoooo...",
"..oooo+OOXooooooooooo+OOXooooo..",
"..oooo+OOX+++++++++XX+OOXooooo..",
"..oooo+OOXOOOOOOOOOOX+OOXooooo..",
"..oooo+OOXXXXXXXXXXXX+OOXooooo..",
"...ooooOOoooooooooooooOOooooo...",
" ..oooooooooooooooooooooooooo.. ",
" ...oooooooooooooooooooooooo... ",
"  ..oooooooooooooooooooooooo..  ",
"  ....oooooooooooooooooooo....  ",
"   ....oooooooooooooooooo....   ",
"     ....oooooooooooooo....     ",
"      ......oooooooo......      ",
"        ................        ",
"           ..........           "
};
