/* XPM */
static char *b69908f0d3b34acff8af0635557192e2tUxQ84G9qB31y61W[] = {
/* columns rows colors chars-per-pixel */
"32 32 6 1 ",
"  c None",
". c #61567D",
"X c #8C76BE",
"o c #AF7FC2",
"O c #9085D0",
"+ c #F4C4D4",
/* pixels */
"                                ",
"                                ",
"      ++                ++      ",
"      ++                ++      ",
"    ++OOoo            ++OOoo    ",
"    ++OOoo            ++OOoo    ",
"    ++OOoo            ++OOoo    ",
"    ++OOoo            ++OOoo    ",
"    ++OOoo++++++++oooo++OOoo    ",
"    ++OOoo++++++++oooo++OOoo    ",
"    ++OOooOOOOOOOOOOoo++OOoo    ",
"    ++OOooOOOOOOOOOOoo++OOoo    ",
"  ..++OOooXXXXXXXXXXXX++OOoo..  ",
"  ..++OOooXXXXXXXXXXXX++OOoo..  ",
"....++OOoo++++++++oooo++OOoo....",
"....++OOoo++++++++oooo++OOoo....",
"..XX++OOooOOOOOOOOOOoo++OOooXX..",
"..XX++OOooOOOOOOOOOOoo++OOooXX..",
"..XXXXOOXXXXXXXXXXXXXXXXOOXXXX..",
"..XXXXOOXXXXXXXXXXXXXXXXOOXXXX..",
"....XXXXXXXXXXXXXXXXXXXXXXXX....",
"....XXXXXXXXXXXXXXXXXXXXXXXX....",
"  ....XXXXXXXXXXXXXXXXXXXX....  ",
"  ....XXXXXXXXXXXXXXXXXXXX....  ",
"    ......XXXXXXXXXXXX......    ",
"    ......XXXXXXXXXXXX......    ",
"        ................        ",
"        ................        ",
"                                ",
"                                ",
"                                ",
"                                "
};
