/* XPM */
static char *_821c6ec209048e2ad4ce4e6c552d868aZLVvTt2PsKvKVgR[] = {
/* columns rows colors chars-per-pixel */
"64 64 5 1 ",
"  c None",
". c #61567D",
"X c #8C76BE",
"o c #AF7FC2",
"O c #9085D0",
/* pixels */
"                                                                ",
"                                                                ",
"                                                                ",
"                                                                ",
"                                                                ",
"                                                                ",
"                                                                ",
"                                                                ",
"                                                                ",
"                                                                ",
"                                                                ",
"                                                                ",
"                                                                ",
"                                                                ",
"                                                                ",
"                                                                ",
"                        OOOOOOOOOOOOOOOO                        ",
"                        OOOOOOOOOOOOOOOO                        ",
"                    OOOOOOooooooooooooOOOOOO                    ",
"                    OOOOOOooooooooooooOOOOOO                    ",
"                OOOOOOoooo............ooooOOOOOO                ",
"                OOOOOOoooo............ooooOOOOOO                ",
"              OOOOoooo......oooooooo......ooooOOOO              ",
"              OOOOoooo......oooooooo......ooooOOOO              ",
"              OOoo......oooo........oooo......ooOO              ",
"              OOoo......oooo........oooo......ooOO              ",
"            OOOOoo..oooo................oooo..ooOOOO            ",
"            OOOOoo..oooo................oooo..ooOOOO            ",
"            OOoo....oo....................oo....ooOO            ",
"            OOoo....oo....................oo....ooOO            ",
"            OOoo..oo........................oo..ooOO            ",
"            OOoo..oo........................oo..ooOO            ",
"            OO....oo........................oo....OO            ",
"            OO....oo........................oo....OO            ",
"            OO....................................OO            ",
"            OO....................................OO            ",
"            OOOO................................OOOO            ",
"            OOOO................................OOOO            ",
"              OO................................OO              ",
"              OO................................OO              ",
"              OOOO..XX....................XX..OOOO              ",
"              OOOO..XX....................XX..OOOO              ",
"                OO....XXXX............XXXX....OO                ",
"                OO....XXXX............XXXX....OO                ",
"                OOOO......XXXXXXXXXXXX......OOOO                ",
"                OOOO......XXXXXXXXXXXX......OOOO                ",
"                  OOOOOO................OOOOOO                  ",
"                  OOOOOO................OOOOOO                  ",
"                      OOOOOOOOOOOOOOOOOOOO                      ",
"                      OOOOOOOOOOOOOOOOOOOO                      ",
"                                                                ",
"                                                                ",
"                                                                ",
"                                                                ",
"                                                                ",
"                                                                ",
"                                                                ",
"                                                                ",
"                                                                ",
"                                                                ",
"                                                                ",
"                                                                ",
"                                                                ",
"                                                                "
};
