/* XPM */
static char *result[] = {
/* columns rows colors chars-per-pixel */
"32 32 6 1 ",
"  c #203C56",
". c #544E68",
"X c #8D697A",
"o c #D08159",
"O c #FFAA5E",
"+ c #FFD4A3",
/* pixels */
"                                ",
"                                ",
"  XX       XX    XX     XX      ",
"   XX       XX....XX    ...     ",
"    X      ...o+++.X   .oO.     ",
"           .ooOO+++.  .oO+.     ",
"            ..ooOO+.  .O+.      ",
"         XX   ..ooO+. .+.  ...  ",
"          XX    ..oO.    ..ooo. ",
"           X      .oo.  ..oOOo. ",
"   XX              .o. ..oO++.  ",
"    XX             .o. .oO++.   ",
"     X          ..  ...oO++.    ",
"                .o. ...o++.     ",
"                 ..  .....      ",
"         XX               XX    ",
"          XX               XX   ",
" XX        X    XX          X   ",
"  XX             XX             ",
"   X              X   XX        ",
"     ...               XX       ",
"   ..oo+..              X       ",
"   .ooOO++.                     ",
"    ..ooO+.      XX             ",
"      ..oO.       XX            ",
"        .o+.  ..   X            ",
" XX  .. .oO. .o+.         XX    ",
"  XX.o+. .o..o+.           XX   ",
"   X .o. .o..o.             X   ",
"              X     XX          ",
"                     XX         ",
"                      X         "
};
