/* XPM */
static char *result[] = {
/* columns rows colors chars-per-pixel */
"32 32 9 1 ",
"  c #0D2B45",
". c #203C56",
"X c #544E68",
"o c #8D697A",
"O c #D08159",
"+ c #FFAA5E",
"@ c #FFD4A3",
"# c #FFECD6",
"$ c white",
/* pixels */
"................................",
"................................",
"..oo.......oo..$$$o...$$oo......",
"...oo.......oo$   $o.$  $XX.....",
"....o......XX$ ... $$ .. $X.....",
"...........XO$ @@.. $ ... $.....",
"............X$ @@@.. .... $.....",
".........oo..$ @@@@..     $XXX..",
".......$$$$$.$ @@O+O+++++ $OOOX.",
"......$     $$ @O+O+O++++ $++OX.",
"...oo$ O@@@@ $ OOO #+O #+ $@@X..",
"....o$ OO@@@ $ OOOo O+o + $@X...",
"....$ +O+   $$ OOOX +OX @. $....",
"....$ O+ $$$.$ OOOOOO+O@@@ $....",
"....$ O+ $...$ OOOOOOO@@@@ $....",
"....$ O+ $o...$ OOOOOO@@@ $o....",
".....$ ++ $$...$         $.oo...",
".oo..$ O++  $$$$$$ @@@ $....o...",
"..oo..$ OO++      @@@@@ $.......",
"...o...$  OO++++++@@@@@ $.......",
".....XXX$$ OO+++++O@@@@ $.......",
"...XXOO@X$ OOOO+++OO@@@ $.......",
"...XOO++@$ OOOOOOOOOO@O $.......",
"....XXOO+$ OO OOOO OO O $.......",
"......XXO$ OO      OO O $.......",
"........X$ .. . $$ .. . $.......",
".oo..XX.X$ .. . $$ .. . $.oo....",
"..ooXO@X.X$  $ $..$  $ $...oo...",
"...o.XOX.XO$$O$....$$.$.....o...",
"..............o.....oo..........",
".....................oo.........",
"......................o........."
};
