/* XPM */
static char *result[] = {
/* columns rows colors chars-per-pixel */
"32 32 8 1 ",
"  c #0D2B45",
". c #203C56",
"X c #544E68",
"o c #8D697A",
"O c #D08159",
"+ c #FFAA5E",
"@ c #FFD4A3",
"# c white",
/* pixels */
"................................",
".............######.............",
"..oo......###O++++O###..oo......",
"...oo...##O+@@@@@@@@+O##XXX.....",
"....o..#O+++@@@@@@@@+++O#+X.....",
".......#+@@+++@@@@+++@@+#@X.....",
"......#O+@@@@@++++@@@@@+O#......",
"......#++@@@@@@@@@@@@@@++#.XXX..",
".....#O+++@@@@@@@@@@@@+++O#OOOX.",
".....#O+@++++@@@@@@++++@+O#++OX.",
"...oo#++@@@@@++++++@@@@@++#@@X..",
"....#O+@@@@@@@@@@@@@@@@@@+O#X...",
"....#O+@@@@@@@@@@@@@@@@@@+O#....",
"....#+++@@@@@@@@@@@@@@@@+++#....",
"....#++++++@@@@@@@@@@++++++#....",
"...#O+@@@++++@@@@@@++++@@@+O#...",
"...#O+@@@@@@++++++++@@@@@@+O#...",
".oo#O+@@@@@@@@@@@@@@@@@@@@+O#...",
"..o#O+++@@@@@@@@@@@@@@@@+++O#...",
"...#O++++++@@@@@@@@@@++++++O#...",
"..##O+@@@++++@@@@@@++++@@@+O##..",
"..#O++@@@@@@++++++++@@@@@@++O#..",
"..#OO++++++@@@@@@@@@@++++++OO#..",
"..#OOOO++++++++++++++++++OOOO#..",
"...###OOOOOOO++++++OOOOOOO###...",
"......######OOOOOOOO######......",
".oo..XX.XO+##########.....oo....",
"..ooXO@X.XO# . .. . #......oo...",
"...o.XOXXXX# . .. . #XXX....o...",
"...XXXXXXXXX# .  . #XXXXXXXXX...",
"........XXXXXXXXXXXXXXXX........",
"......................o........."
};
