/* XPM */
static char *_1b100a2f95d46118bb02db628de544cZ6sbNM9IZsDp2adi[] = {
/* columns rows colors chars-per-pixel */
"32 32 3 1 ",
"  c #8C76BE",
". c #AF7FC2",
"X c #F4C4D4",
/* pixels */
"XXXXXXXXXX      XXXXXXXXXXXXXXXX",
"XXXXXXXXXX      XXXXXXXXXXXXXXXX",
"..........XX  ....XXXX..........",
"..........XX  ....XXXX..........",
"..........XX  ..................",
"..........XX  ..................",
"  ........      ..............XX",
"  ........      ..............XX",
"                                ",
"                                ",
"XXXXXXXXXXXXXXXXXX      XXXXXXXX",
"XXXXXXXXXXXXXXXXXX      XXXXXXXX",
"..................XX  ..........",
"..................XX  ..........",
"........XX  ......XX  ..........",
"........XX  ......XX  ..........",
"..................XX  ....XX  ..",
"..................XX  ....XX  ..",
"......XX  ........      ........",
"......XX  ........      ........",
"                                ",
"                                ",
"XXXX      XXXXXXXXXXXXXXXXXXXXXX",
"XXXX      XXXXXXXXXXXXXXXXXXXXXX",
"....XX  ....XX  ................",
"....XX  ....XX  ................",
"....XX  ..................XX  ..",
"....XX  ..................XX  ..",
"....      ......................",
"....      ......................",
"                                ",
"                                "
};
